<svg width="72" height="72" viewBox="0 0 72 72" fill="none" xmlns="http://www.w3.org/2000/svg">
<path d="M37.4063 9.73145H30.4313C26.7751 9.73145 23.7376 12.7127 23.7376 16.4252V18.8439H15.0188C14.4563 18.8439 14.0063 19.2939 14.0063 19.8564V19.9127L15.4126 49.0502C15.5813 53.0439 18.9001 56.1939 22.8938 56.1939H39.0376C41.1751 61.2002 46.9689 63.5064 51.9751 61.3689C56.9814 59.2314 59.2876 53.4377 57.1501 48.4314C56.2501 46.3502 54.6751 44.6064 52.6501 43.5939L53.7751 19.9127C53.7751 19.3502 53.3251 18.9002 52.8189 18.9002H44.0439V16.4814C44.0439 12.7127 41.0626 9.73145 37.4063 9.73145ZM25.7626 16.3689C25.7626 13.7814 27.8439 11.6439 30.4876 11.6439H37.4626C40.0501 11.6439 42.1876 13.7252 42.1876 16.3689V18.7877H25.7626V16.3689ZM55.3501 55.4064C54.1126 58.2752 51.2439 60.1314 48.1501 60.1314C44.7751 60.1314 41.7939 57.9939 40.6689 54.8439C40.3876 54.0002 40.2188 53.1564 40.2188 52.2564C40.2188 47.9252 43.7626 44.3814 48.0938 44.3814C53.7188 44.3252 57.6001 50.1189 55.3501 55.4064ZM51.8064 20.7564L50.7376 42.7502C45.5063 41.2877 40.1063 44.3252 38.6438 49.5564C38.2501 51.0752 38.1376 52.6502 38.4751 54.1689H22.9501C20.0251 54.1689 17.5501 51.8627 17.4376 48.9377L16.0876 20.8127H23.7938V24.1314C23.7938 24.6939 24.2438 25.1439 24.8063 25.1439C25.3688 25.1439 25.8188 24.6939 25.8188 24.1314V20.8127H42.1876V24.1314C42.1876 24.6939 42.6376 25.1439 43.2001 25.1439C43.7626 25.1439 44.2126 24.6939 44.2126 24.1314V20.8127H51.8064V20.7564Z" fill="#1B1E6D"/>
<path d="M48.094 47.0254C47.5315 47.0254 47.0815 47.4754 47.0815 48.0379V51.2441H43.8753C43.3128 51.2441 42.8628 51.6941 42.8628 52.2566C42.8628 52.8191 43.3128 53.2691 43.8753 53.2691H47.0815V56.4754C47.0815 57.0379 47.5315 57.4879 48.094 57.4879C48.6565 57.4879 49.1065 57.0379 49.1065 56.4754V53.2691H52.3128C52.8753 53.2691 53.3253 52.8191 53.3253 52.2566C53.3253 51.6941 52.8753 51.2441 52.3128 51.2441H49.1065V48.0379C49.1065 47.4754 48.6565 47.0254 48.094 47.0254Z" fill="#1B1E6D"/>
</svg>
