<svg width="25" height="24" viewBox="0 0 25 24" fill="none" xmlns="http://www.w3.org/2000/svg">
<path d="M21.3549 5.90403C21.2248 5.27154 20.9211 4.70447 20.4872 4.26827C20.3571 4.1374 20.2052 4.00654 20.0317 3.89749L20.01 3.87568C19.9883 3.85387 19.9666 3.85387 19.9449 3.83206C19.8799 3.78844 19.8148 3.74482 19.7497 3.72301H19.728C19.2725 3.4831 18.7736 3.35224 18.2096 3.35224H16.8647V2.41439C16.8647 2.19629 16.6911 2 16.4525 2C16.2356 2 16.0404 2.17448 16.0404 2.41439V3.30862H8.25289V2.41439C8.25289 2.19629 8.05767 2 7.84074 2C7.62382 2 7.42859 2.17448 7.42859 2.41439V3.30862H6.08368C5.67154 3.30862 5.25939 3.39586 4.89062 3.54853C4.47847 3.72301 4.1097 3.96292 3.80601 4.26827C3.63248 4.44275 3.48063 4.63904 3.35048 4.83533C3.22033 5.05344 3.11187 5.27154 3.0251 5.51145C2.98172 5.64231 2.93833 5.77317 2.91664 5.90403C2.87325 6.12214 2.85156 6.34024 2.85156 6.55834V8.73937V18.7939C2.85156 19.6881 3.22033 20.4951 3.78432 21.0622C4.37001 21.651 5.17262 22 6.0403 22H18.2313C19.1206 22 19.9232 21.6292 20.4872 21.0622C21.0729 20.4733 21.42 19.6663 21.42 18.7939V8.73937V6.55834C21.42 6.34024 21.3983 6.12214 21.3549 5.90403ZM3.69755 6.53653C3.69755 6.36205 3.71925 6.20938 3.74094 6.05671C3.76263 5.90404 3.82771 5.75136 3.87109 5.59869C3.95786 5.4024 4.06632 5.22792 4.17478 5.07525C4.23986 4.988 4.30493 4.92257 4.37001 4.83533C4.50016 4.70447 4.65201 4.59542 4.80385 4.48637C5.17262 4.26827 5.58477 4.1374 6.0403 4.1374H7.38521V5.03162C7.38521 5.24973 7.55875 5.44602 7.79736 5.44602C8.01428 5.44602 8.20951 5.27154 8.20951 5.03162V4.1374H16.1054V5.03162C16.1054 5.24973 16.279 5.44602 16.5176 5.44602C16.7345 5.44602 16.9297 5.27154 16.9297 5.03162V4.1374H18.2746C18.7302 4.1374 19.164 4.26827 19.5111 4.48637C19.6629 4.59542 19.8148 4.70447 19.9449 4.83533C20.2703 5.16249 20.5089 5.57688 20.5957 6.05671C20.6174 6.20938 20.6391 6.38386 20.6391 6.53653V8.32497H3.69755V6.53653ZM20.6608 18.7721C20.6608 19.4482 20.4005 20.0589 19.9666 20.4951C19.5328 20.9313 18.9254 21.193 18.2746 21.193H6.08368C5.43292 21.193 4.82554 20.9313 4.3917 20.4951C3.95786 20.0589 3.69755 19.4482 3.69755 18.7939V9.13195H20.6608V18.7721Z" fill="#1B1E6D" fill-opacity="0.5"/>
</svg>
