<svg width="24" height="24" viewBox="0 0 24 24" fill="none" xmlns="http://www.w3.org/2000/svg">
<path d="M2.95513 23.3332C2.30299 23.3332 1.75852 23.1148 1.32171 22.678C0.884907 22.2412 0.666504 21.6967 0.666504 21.0445V2.95513C0.666504 2.30299 0.884907 1.75852 1.32171 1.32171C1.75852 0.884907 2.30299 0.666504 2.95513 0.666504H21.0445C21.6967 0.666504 22.2412 0.884907 22.678 1.32171C23.1148 1.75852 23.3332 2.30299 23.3332 2.95513V21.0445C23.3332 21.6967 23.1148 22.2412 22.678 22.678C22.2412 23.1148 21.6967 23.3332 21.0445 23.3332H2.95513ZM2.95513 21.9165H11.2915V2.08317H2.95513C2.73696 2.08317 2.53709 2.17396 2.35552 2.35552C2.17396 2.53709 2.08317 2.73696 2.08317 2.95513V21.0445C2.08317 21.2627 2.17396 21.4626 2.35552 21.6441C2.53709 21.8257 2.73696 21.9165 2.95513 21.9165ZM12.7082 21.9165H21.0445C21.2627 21.9165 21.4626 21.8257 21.6441 21.6441C21.8257 21.4626 21.9165 21.2627 21.9165 21.0445V11.9998H12.7082V21.9165ZM12.7082 10.5832H21.9165V2.95513C21.9165 2.73696 21.8257 2.53709 21.6441 2.35552C21.4626 2.17396 21.2627 2.08317 21.0445 2.08317H12.7082V10.5832Z" fill="#A1A9B8"/>
</svg>
