<svg width="17" height="18" viewBox="0 0 17 18" fill="none" xmlns="http://www.w3.org/2000/svg">
<path fill-rule="evenodd" clip-rule="evenodd" d="M9.99321 0C11.3234 0 12.4107 1.02188 12.4866 2.31041L12.4909 2.45463V3.27221H14.1561H15.8185C16.2782 3.27221 16.6511 3.63853 16.6511 4.09041C16.6511 4.51003 16.3297 4.85586 15.9156 4.90311L15.8185 4.90862H14.9887V15.5454C14.9887 16.8526 13.9488 17.9212 12.6377 17.9959L12.491 18H4.16546C2.8353 18 1.748 16.9782 1.67204 15.6895L1.6678 15.5454V4.90862H0.832553C0.372747 4.90862 0 4.54229 0 4.09041C0 3.67081 0.3214 3.32497 0.735461 3.2777L0.832553 3.27221H2.50035H4.16535V2.45463C4.16535 1.14739 5.20515 0.0788249 6.51625 0.0041671L6.66301 0H9.99321ZM4.96465 4.90862C4.97568 4.90905 4.98676 4.90926 4.9979 4.90926C5.00905 4.90926 5.02013 4.90905 5.03116 4.90862H11.6251C11.6361 4.90905 11.6472 4.90926 11.6583 4.90926C11.6695 4.90926 11.6805 4.90905 11.6916 4.90862H13.3235V15.5454L13.3179 15.6408C13.2698 16.0476 12.9179 16.3636 12.491 16.3636H4.16546L4.06836 16.3581C3.65431 16.3108 3.3329 15.965 3.3329 15.5454V4.90862H4.96465ZM10.8258 3.27221H5.83046V2.45463L5.83606 2.35922C5.88415 1.95228 6.23604 1.63643 6.66301 1.63643H9.99321L10.0903 1.64192C10.5044 1.68919 10.8258 2.03503 10.8258 2.45463V3.27221ZM6.66119 7.36393C7.08815 7.36393 7.44004 7.67978 7.48814 8.08672L7.49374 8.18213V13.0914C7.49374 13.5433 7.121 13.9096 6.66119 13.9096C6.23423 13.9096 5.88234 13.5937 5.83425 13.1868L5.82865 13.0914V8.18213C5.82865 7.73025 6.20139 7.36393 6.66119 7.36393ZM10.8203 8.08672C10.7722 7.67978 10.4203 7.36393 9.9933 7.36393C9.53349 7.36393 9.16075 7.73025 9.16075 8.18213V13.0914L9.16635 13.1868C9.21444 13.5937 9.56633 13.9096 9.9933 13.9096C10.4531 13.9096 10.8259 13.5433 10.8259 13.0914V8.18213L10.8203 8.08672Z" fill="#F65160"/>
</svg>
