<svg width="20" height="20" viewBox="0 0 20 20" fill="none" xmlns="http://www.w3.org/2000/svg">
<mask id="mask0_391_2429" style="mask-type:alpha" maskUnits="userSpaceOnUse" x="0" y="0" width="20" height="20">
<rect width="20" height="20" fill="#D9D9D9"/>
</mask>
<g mask="url(#mask0_391_2429)">
<path d="M10.0002 6.05755C10.1909 6.05755 10.3507 6.12206 10.4797 6.25109C10.6088 6.38012 10.6733 6.53998 10.6733 6.73067C10.6733 6.92136 10.6088 7.08123 10.4797 7.21025C10.3507 7.33914 10.1909 7.40359 10.0002 7.40359C9.80947 7.40359 9.64961 7.33914 9.52058 7.21025C9.39155 7.08123 9.32704 6.92136 9.32704 6.73067C9.32704 6.53998 9.39155 6.38012 9.52058 6.25109C9.64961 6.12206 9.80947 6.05755 10.0002 6.05755ZM10.0004 9.10234C10.1776 9.10234 10.326 9.16227 10.4456 9.28213C10.5653 9.40185 10.6252 9.55025 10.6252 9.72734V13.4773C10.6252 13.6544 10.5652 13.8029 10.4454 13.9228C10.3255 14.0425 10.177 14.1023 9.99995 14.1023C9.82273 14.1023 9.67433 14.0425 9.55475 13.9228C9.43502 13.8029 9.37516 13.6544 9.37516 13.4773V9.72734C9.37516 9.55025 9.43509 9.40185 9.55496 9.28213C9.67482 9.16227 9.82329 9.10234 10.0004 9.10234ZM10.0016 2.08317C8.90662 2.08317 7.87738 2.29095 6.91391 2.7065C5.95044 3.12206 5.11238 3.68602 4.39975 4.39838C3.68711 5.11074 3.12287 5.94845 2.70704 6.9115C2.29134 7.87456 2.0835 8.90352 2.0835 9.99838C2.0835 11.0934 2.29127 12.1226 2.70683 13.0861C3.12238 14.0496 3.68634 14.8876 4.3987 15.6003C5.11107 16.3129 5.94877 16.8771 6.91183 17.293C7.87489 17.7087 8.90384 17.9165 9.9987 17.9165C11.0937 17.9165 12.1229 17.7087 13.0864 17.2932C14.0499 16.8776 14.8879 16.3137 15.6006 15.6013C16.3132 14.8889 16.8775 14.0512 17.2933 13.0882C17.709 12.1251 17.9168 11.0962 17.9168 10.0013C17.9168 8.9063 17.7091 7.87706 17.2935 6.91359C16.8779 5.95011 16.314 5.11206 15.6016 4.39942C14.8893 3.68678 14.0516 3.12255 13.0885 2.70671C12.1254 2.29102 11.0965 2.08317 10.0016 2.08317ZM10.0002 3.33317C11.8613 3.33317 13.4377 3.979 14.7293 5.27067C16.021 6.56234 16.6668 8.13873 16.6668 9.99984C16.6668 11.8609 16.021 13.4373 14.7293 14.729C13.4377 16.0207 11.8613 16.6665 10.0002 16.6665C8.13905 16.6665 6.56266 16.0207 5.271 14.729C3.97933 13.4373 3.3335 11.8609 3.3335 9.99984C3.3335 8.13873 3.97933 6.56234 5.271 5.27067C6.56266 3.979 8.13905 3.33317 10.0002 3.33317Z" fill="#1C1B1F"/>
</g>
</svg>
