<svg width="18" height="18" viewBox="0 0 18 18" fill="none" xmlns="http://www.w3.org/2000/svg">
<path fill-rule="evenodd" clip-rule="evenodd" d="M12.6498 0.747045L5.35019 8.04663C5.19075 8.20609 5.10118 8.42233 5.10118 8.64782V12.0486C5.10118 12.5181 5.48182 12.8988 5.95136 12.8988H9.35214C9.57764 12.8988 9.79389 12.8092 9.95333 12.6498L17.253 5.35019C18.249 4.35411 18.249 2.73918 17.253 1.74311L16.2569 0.747045C15.2607 -0.249015 13.6459 -0.249015 12.6498 0.747045ZM16.0505 2.94547L16.1213 3.02557C16.3807 3.35909 16.3571 3.84134 16.0505 4.14783L8.99847 11.1984H6.80156V8.9998L13.8521 1.94941C14.1842 1.61738 14.7225 1.61738 15.0545 1.94941L16.0505 2.94547ZM8.52815 1.84626C8.52815 1.37671 8.1475 0.996057 7.67796 0.996057H4.25098L4.06659 0.999993C1.80437 1.09654 0 2.96106 0 5.24704V13.749L0.0039312 13.9334C0.100478 16.1955 1.965 17.9999 4.25098 17.9999H12.7529L12.9373 17.996C15.1996 17.8996 17.004 16.035 17.004 13.749V9.56747L16.9983 9.46831C16.9491 9.04548 16.5897 8.71727 16.1536 8.71727C15.6841 8.71727 15.3035 9.09791 15.3035 9.56747V13.749L15.2993 13.8989C15.2217 15.2377 14.1113 16.2996 12.7529 16.2996H4.25098L4.10112 16.2952C2.76221 16.2176 1.70039 15.1073 1.70039 13.749V5.24704L1.70472 5.09718C1.7823 3.75827 2.89264 2.69646 4.25098 2.69646H7.67796L7.77711 2.69073C8.19994 2.64163 8.52815 2.28226 8.52815 1.84626Z" fill="#0AC947"/>
</svg>
