<svg width="72" height="72" viewBox="0 0 72 72" fill="none" xmlns="http://www.w3.org/2000/svg">
<path d="M45.3264 13.2806H41.5487C41.3769 12.3 40.8722 11.4086 40.1196 10.7569C39.3671 10.1052 38.4127 9.73299 37.4177 9.70312H34.5827C33.5875 9.73278 32.6331 10.1049 31.8805 10.7567C31.1279 11.4084 30.6232 12.2999 30.4517 13.2806H26.6739C26.4128 13.2806 26.1625 13.3843 25.9778 13.5689C25.7932 13.7535 25.6895 14.0039 25.6895 14.265V16.2394H21.0039C19.8481 16.2407 18.7401 16.7004 17.9228 17.5177C17.1056 18.3349 16.6459 19.443 16.6445 20.5987V57.9375C16.6459 59.0933 17.1056 60.2013 17.9228 61.0186C18.7401 61.8358 19.8481 62.2955 21.0039 62.2969H50.9964C52.1522 62.2955 53.2602 61.8358 54.0775 61.0186C54.8947 60.2013 55.3545 59.0933 55.3558 57.9375V20.5987C55.3545 19.443 54.8947 18.3349 54.0775 17.5177C53.2602 16.7004 52.1522 16.2407 50.9964 16.2394H46.3108V14.265C46.3106 14.004 46.2069 13.7537 46.0223 13.5691C45.8377 13.3845 45.5874 13.2808 45.3264 13.2806ZM27.6583 17.2238V15.2494H31.337C31.5981 15.2492 31.8484 15.1455 32.0329 14.9609C32.2175 14.7763 32.3213 14.526 32.3214 14.265C32.3214 12.8351 33.3339 11.6719 34.5827 11.6719H37.4177C38.6647 11.6719 39.6789 12.8351 39.6789 14.265C39.6791 14.526 39.7828 14.7763 39.9674 14.9609C40.152 15.1455 40.4023 15.2492 40.6633 15.2494H44.342V19.2206H27.6583V17.2238ZM50.9964 18.2081C51.6302 18.2089 52.2379 18.461 52.686 18.9091C53.1342 19.3573 53.3863 19.9649 53.387 20.5987V57.9375C53.3863 58.5713 53.1342 59.1789 52.686 59.6271C52.2379 60.0753 51.6302 60.3274 50.9964 60.3281H21.0039C20.3701 60.3274 19.7625 60.0753 19.3143 59.6271C18.8661 59.1789 18.614 58.5713 18.6133 57.9375V20.5987C18.614 19.9649 18.8661 19.3573 19.3143 18.9091C19.7625 18.461 20.3701 18.2089 21.0039 18.2081H25.6895V20.205C25.6895 20.4661 25.7932 20.7165 25.9778 20.9011C26.1625 21.0857 26.4128 21.1894 26.6739 21.1894H45.3264C45.5874 21.1892 45.8377 21.0855 46.0223 20.9009C46.2069 20.7163 46.3106 20.466 46.3108 20.205V18.2081H50.9964Z" fill="#1B1E6D"/>
<path d="M26.3279 31.3155C26.4572 31.3157 26.5852 31.2903 26.7046 31.2408C26.8241 31.1912 26.9325 31.1186 27.0237 31.0269L29.3862 28.6644C29.5708 28.4798 29.6745 28.2294 29.6745 27.9683C29.6745 27.7072 29.5708 27.4568 29.3862 27.2722C29.2016 27.0876 28.9512 26.9839 28.6901 26.9839C28.429 26.9839 28.1786 27.0876 27.994 27.2722L26.3284 28.9372L25.3547 27.9635C25.17 27.7789 24.9194 27.6753 24.6583 27.6754C24.3971 27.6755 24.1466 27.7793 23.962 27.9641C23.7774 28.1489 23.6737 28.3994 23.6738 28.6606C23.6739 28.9218 23.7778 29.1722 23.9626 29.3568L25.6326 31.0269C25.7238 31.1184 25.8321 31.191 25.9514 31.2406C26.0708 31.2901 26.1987 31.3155 26.3279 31.3155Z" fill="#1B1E6D"/>
<path d="M46.4143 30.1348C46.6754 30.1348 46.9257 30.0311 47.1103 29.8464C47.295 29.6618 47.3987 29.4115 47.3987 29.1504C47.3987 28.8893 47.295 28.6389 47.1103 28.4543C46.9257 28.2697 46.6754 28.166 46.4143 28.166H33.29C33.029 28.166 32.7786 28.2697 32.594 28.4543C32.4094 28.6389 32.3057 28.8893 32.3057 29.1504C32.3057 29.4115 32.4094 29.6618 32.594 29.8464C32.7786 30.0311 33.029 30.1348 33.29 30.1348H46.4143Z" fill="#1B1E6D"/>
<path d="M26.3279 38.9527C26.4572 38.9529 26.5852 38.9275 26.7046 38.878C26.8241 38.8284 26.9325 38.7558 27.0237 38.6641L29.3862 36.3016C29.4776 36.2102 29.5501 36.1017 29.5996 35.9822C29.6491 35.8628 29.6745 35.7348 29.6745 35.6055C29.6745 35.4762 29.6491 35.3482 29.5996 35.2288C29.5501 35.1094 29.4776 35.0008 29.3862 34.9094C29.2948 34.818 29.1862 34.7455 29.0668 34.696C28.9474 34.6466 28.8194 34.6211 28.6901 34.6211C28.5608 34.6211 28.4328 34.6466 28.3134 34.696C28.1939 34.7455 28.0854 34.818 27.994 34.9094L26.3284 36.5744L25.3547 35.6007C25.17 35.4161 24.9194 35.3125 24.6583 35.3126C24.3971 35.3127 24.1466 35.4165 23.962 35.6013C23.7774 35.7861 23.6737 36.0366 23.6738 36.2978C23.6739 36.559 23.7778 36.8094 23.9626 36.994L25.6326 38.6641C25.7238 38.7556 25.8321 38.8283 25.9514 38.8778C26.0708 38.9273 26.1987 38.9528 26.3279 38.9527Z" fill="#1B1E6D"/>
<path d="M46.4143 37.7715C46.6754 37.7715 46.9257 37.6678 47.1103 37.4832C47.295 37.2986 47.3987 37.0482 47.3987 36.7871C47.3987 36.526 47.295 36.2757 47.1103 36.0911C46.9257 35.9064 46.6754 35.8027 46.4143 35.8027H33.29C33.029 35.8027 32.7786 35.9064 32.594 36.0911C32.4094 36.2757 32.3057 36.526 32.3057 36.7871C32.3057 37.0482 32.4094 37.2986 32.594 37.4832C32.7786 37.6678 33.029 37.7715 33.29 37.7715H46.4143Z" fill="#1B1E6D"/>
<path d="M26.3278 46.5894C26.5888 46.5893 26.8391 46.4855 27.0236 46.3008L29.3861 43.9383C29.5707 43.7537 29.6745 43.5033 29.6745 43.2422C29.6745 42.9812 29.5707 42.7308 29.3861 42.5461C29.2015 42.3615 28.9511 42.2578 28.69 42.2578C28.4289 42.2578 28.1786 42.3615 27.9939 42.5461L26.3278 44.2123L25.3541 43.2391C25.1684 43.0599 24.9198 42.9607 24.6617 42.963C24.4036 42.9653 24.1567 43.0689 23.9742 43.2514C23.7917 43.434 23.6883 43.6809 23.6861 43.939C23.6839 44.1971 23.7831 44.4457 23.9625 44.6313L25.6326 46.3008C25.8169 46.4853 26.067 46.5891 26.3278 46.5894Z" fill="#1B1E6D"/>
<path d="M46.4143 45.4092C46.6754 45.4092 46.9257 45.3055 47.1103 45.1209C47.295 44.9363 47.3987 44.6859 47.3987 44.4248C47.3987 44.1637 47.295 43.9134 47.1103 43.7287C46.9257 43.5441 46.6754 43.4404 46.4143 43.4404H33.29C33.029 43.4404 32.7786 43.5441 32.594 43.7287C32.4094 43.9134 32.3057 44.1637 32.3057 44.4248C32.3057 44.6859 32.4094 44.9363 32.594 45.1209C32.7786 45.3055 33.029 45.4092 33.29 45.4092H46.4143Z" fill="#1B1E6D"/>
<path d="M26.328 54.2251C26.4573 54.2253 26.5853 54.2 26.7047 54.1504C26.8242 54.1009 26.9326 54.0282 27.0238 53.9366L29.3863 51.5741C29.4777 51.4827 29.5502 51.3741 29.5997 51.2547C29.6492 51.1353 29.6746 51.0073 29.6746 50.878C29.6746 50.7487 29.6492 50.6207 29.5997 50.5013C29.5502 50.3818 29.4777 50.2733 29.3863 50.1819C29.2949 50.0905 29.1864 50.018 29.0669 49.9685C28.9475 49.919 28.8195 49.8936 28.6902 49.8936C28.5609 49.8936 28.4329 49.919 28.3135 49.9685C28.194 50.018 28.0855 50.0905 27.9941 50.1819L26.3285 51.8469L25.3549 50.8732C25.1699 50.6886 24.9191 50.585 24.6578 50.5853C24.3964 50.5855 24.1459 50.6896 23.9613 50.8746C23.7766 51.0596 23.6731 51.3103 23.6733 51.5717C23.6736 51.833 23.7777 52.0836 23.9627 52.2682L25.6327 53.9383C25.724 54.0295 25.8324 54.1018 25.9518 54.151C26.0711 54.2002 26.1989 54.2254 26.328 54.2251Z" fill="#1B1E6D"/>
<path d="M46.4143 53.0439C46.6754 53.0439 46.9257 52.9402 47.1103 52.7556C47.295 52.571 47.3987 52.3206 47.3987 52.0596C47.3987 51.7985 47.295 51.5481 47.1103 51.3635C46.9257 51.1789 46.6754 51.0752 46.4143 51.0752H33.29C33.029 51.0752 32.7786 51.1789 32.594 51.3635C32.4094 51.5481 32.3057 51.7985 32.3057 52.0596C32.3057 52.3206 32.4094 52.571 32.594 52.7556C32.7786 52.9402 33.029 53.0439 33.29 53.0439H46.4143Z" fill="#1B1E6D"/>
</svg>
