<svg width="129" height="47" viewBox="0 0 129 47" fill="none" xmlns="http://www.w3.org/2000/svg">
<path d="M128.998 26.8144V26.8501C128.998 27.4447 128.5 27.9245 127.895 27.9152C124.142 27.8515 120.426 27.8469 117.446 25.1811C117.022 24.8007 116.38 24.8038 115.958 25.1857C113.016 27.8453 109.305 27.8438 105.546 27.9229C104.939 27.9354 104.438 27.4556 104.438 26.8579C104.438 26.3036 104.872 25.8409 105.435 25.7959C107.166 25.6562 108.856 25.5708 110.505 25.2649C114.894 24.4483 116.923 19.921 114.698 16.0814C113.546 14.0941 111.524 13.6268 109.447 13.3908C108.144 13.2433 106.831 13.1936 105.476 13.1253C104.899 13.0958 104.447 12.6285 104.447 12.0618V12.0214C104.447 11.4253 104.945 10.9455 105.552 10.9564C109.273 11.0262 112.958 11.0418 115.999 13.6097C116.41 13.9575 117.017 13.9466 117.425 13.5958C120.404 11.0356 124.107 11.0278 127.86 10.9548C128.467 10.9424 128.967 11.4237 128.967 12.0199V12.0665C128.967 12.6301 128.521 13.0958 127.947 13.13C126.765 13.1999 125.581 13.2697 124.398 13.3442C124.027 13.3675 123.657 13.4048 123.29 13.4653C119 14.1687 117.288 16.5534 118.23 21.3944C118.706 23.835 120.786 25.1889 124.115 25.4978C125.382 25.6143 126.651 25.6779 127.976 25.754C128.549 25.7866 128.998 26.2539 128.998 26.8175V26.8144Z" fill="#1F316F"/>
<path d="M86.8229 10.9268H97.8221C100.755 10.9268 102.222 12.3676 102.222 15.2151V16.1637C102.222 19.0111 100.755 20.4519 97.8221 20.4519H83.9902C83.4385 20.4519 82.9895 20.8913 82.9895 21.4347V21.6645C82.9895 24.0321 84.945 25.9527 87.3557 25.9527H100.021C100.868 25.9527 101.554 26.6265 101.554 27.4587C101.554 27.7863 101.388 27.9493 101.022 27.9493H86.8229C83.4179 27.9493 80.6562 25.2385 80.6562 21.8927V16.9819C80.6562 13.6376 83.4163 10.9253 86.8229 10.9253V10.9268ZM82.9895 17.1791V17.4741C82.9895 18.0159 83.4369 18.4568 83.9902 18.4568H97.3226C99.1895 18.4568 99.8898 17.7364 99.8898 15.9355V15.4448C99.8898 13.6439 99.1895 12.9235 97.3226 12.9235H87.3241C84.9307 12.9235 82.9911 14.8285 82.9911 17.1791H82.9895Z" fill="#1F316F"/>
<path d="M57.538 22.6456C57.538 24.6748 58.8042 25.9526 60.8703 25.9526H70.8688C72.9349 25.9526 74.2359 24.6764 74.2359 22.6456V11.4174C74.2359 11.0898 74.3687 10.9268 74.7355 10.9268H76.0349C76.4016 10.9268 76.5676 11.0898 76.5676 11.4174V22.8754C76.5676 25.92 74.4683 27.9492 71.4016 27.9492H60.3692C57.2692 27.9492 55.2031 25.92 55.2031 22.8754V11.4174C55.2031 11.0898 55.3691 10.9268 55.7027 10.9268H57.0353C57.3688 10.9268 57.5348 11.0898 57.5348 11.4174V22.6456H57.538Z" fill="#1F316F"/>
<path d="M36.3034 10.9268H47.3026C50.235 10.9268 51.702 12.3676 51.702 15.2151V16.1637C51.702 19.0111 50.235 20.4519 47.3026 20.4519H33.4706C32.9189 20.4519 32.47 20.8913 32.47 21.4347V21.6971C32.47 24.0477 34.4096 25.9527 36.8029 25.9527H49.5015C50.3488 25.9527 51.0349 26.6265 51.0349 27.4587C51.0349 27.7863 50.8689 27.9493 50.5021 27.9493H36.3034C32.8984 27.9493 30.1367 25.2385 30.1367 21.8927V16.9819C30.1367 13.6376 32.8968 10.9253 36.3034 10.9253V10.9268ZM32.47 17.1791V17.4741C32.47 18.0159 32.9173 18.4568 33.4706 18.4568H46.8031C48.67 18.4568 49.3703 17.7364 49.3703 15.9355V15.4448C49.3703 13.6439 48.67 12.9235 46.8031 12.9235H36.8045C34.4112 12.9235 32.4716 14.8285 32.4716 17.1791H32.47Z" fill="#1F316F"/>
<path d="M16.298 27.9495H9.53221C6.46546 27.9495 4.09901 27.0987 2.46604 25.3629C0.799884 23.6287 0 21.4023 0 18.6853C0 15.9683 0.799884 13.7745 2.46604 12.0402C4.09901 10.306 6.46546 9.42104 9.53221 9.42104H15.5977C19.6967 9.42104 22.3967 10.9922 23.6977 14.0695L24.104 2.2C24.104 1.51221 24.0297 0 24.7632 0C25.4303 0 25.3939 1.51221 25.3939 2.2L25.7955 18.6853C25.7955 21.4023 24.9624 23.6287 23.3294 25.3629C21.6633 27.0971 19.33 27.9495 16.2964 27.9495H16.298ZM16.132 26.0181C18.5649 26.0181 20.4318 25.3303 21.7312 23.9563C23.0306 22.5822 23.6977 20.8465 23.6977 18.6853C23.6977 16.5241 23.0306 14.7898 21.7312 13.4143C20.4318 12.0387 18.5649 11.3524 16.132 11.3524H9.66658C7.23373 11.3524 5.36681 12.0402 4.06739 13.4143C2.73478 14.7898 2.10088 16.5241 2.10088 18.6853C2.10088 20.8465 2.73478 22.5807 4.06739 23.9563C5.36681 25.3318 7.23373 26.0181 9.66658 26.0181H16.132Z" fill="#1F316F"/>
<path fill-rule="evenodd" clip-rule="evenodd" d="M9.11476 22.7036C8.56149 22.7036 8.0335 22.5872 7.55452 22.3791C6.1729 21.7736 5.20703 20.3949 5.20703 18.7849C5.20703 17.7012 5.64491 16.7231 6.35153 16.0136C7.05815 15.304 8.03508 14.8662 9.11476 14.8662H16.5556C18.7134 14.8662 20.4633 16.6222 20.4633 18.7849C20.4633 19.8686 20.0254 20.8467 19.3188 21.5563C18.9758 21.9009 18.5664 22.1804 18.1127 22.3791C17.6368 22.5887 17.1089 22.7036 16.5524 22.7036H9.11476ZM9.68543 20.2288C10.5438 20.2288 11.2394 19.5472 11.2394 18.7042C11.2394 17.8611 10.5438 17.1796 9.68543 17.1796C8.82706 17.1796 8.13151 17.8611 8.13151 18.7042C8.13151 19.5472 8.82706 20.2288 9.68543 20.2288ZM17.5214 18.7042C17.5214 19.5457 16.8259 20.2288 15.9675 20.2288C15.1092 20.2288 14.4136 19.5472 14.4136 18.7042C14.4136 17.8611 15.1092 17.1796 15.9675 17.1796C16.8259 17.1796 17.5214 17.8611 17.5214 18.7042Z" fill="#14CDC8"/>
<path d="M2.84201 43.4377C2.26801 43.4377 1.82934 43.3163 1.52601 43.0737C1.22267 42.8263 1.04067 42.4507 0.980007 41.9467C0.966007 41.8253 0.991674 41.732 1.05701 41.6667C1.12234 41.5967 1.21801 41.5617 1.34401 41.5617C1.46067 41.5617 1.54701 41.592 1.60301 41.6527C1.66367 41.7133 1.70334 41.8043 1.72201 41.9257C1.76401 42.215 1.86901 42.418 2.03701 42.5347C2.20967 42.6467 2.47801 42.7027 2.84201 42.7027H5.13801C5.57201 42.7027 5.87067 42.621 6.03401 42.4577C6.19734 42.2943 6.27901 41.9957 6.27901 41.5617C6.27901 41.123 6.19734 40.822 6.03401 40.6587C5.87067 40.4953 5.57201 40.4137 5.13801 40.4137H2.87001C2.26334 40.4137 1.81067 40.269 1.51201 39.9797C1.21801 39.6857 1.07101 39.2353 1.07101 38.6287C1.07101 38.008 1.21801 37.553 1.51201 37.2637C1.80601 36.9697 2.25867 36.8227 2.87001 36.8227H5.06801C6.12267 36.8227 6.70834 37.2893 6.82501 38.2227C6.84367 38.344 6.81801 38.4397 6.74801 38.5097C6.68267 38.575 6.58934 38.6077 6.46801 38.6077C6.35134 38.6077 6.26267 38.5773 6.20201 38.5167C6.14601 38.456 6.10634 38.3673 6.08301 38.2507C6.05034 37.9893 5.95467 37.8097 5.79601 37.7117C5.64201 37.609 5.39934 37.5577 5.06801 37.5577H2.87001C2.46401 37.5577 2.18401 37.6323 2.03001 37.7817C1.88067 37.931 1.80601 38.2133 1.80601 38.6287C1.80601 39.0253 1.88301 39.3007 2.03701 39.4547C2.19101 39.604 2.46867 39.6787 2.87001 39.6787H5.13801C5.78201 39.6787 6.25567 39.8327 6.55901 40.1407C6.86234 40.444 7.01401 40.9177 7.01401 41.5617C7.01401 42.201 6.86234 42.6747 6.55901 42.9827C6.25567 43.286 5.78201 43.4377 5.13801 43.4377H2.84201ZM12.9513 43.4517C12.0787 43.4517 11.4393 43.251 11.0333 42.8497C10.6273 42.4437 10.4243 41.8067 10.4243 40.9387V39.3567C10.4243 38.4747 10.6273 37.833 11.0333 37.4317C11.4393 37.0257 12.0787 36.8273 12.9513 36.8367H14.0993C14.972 36.8367 15.609 37.0397 16.0103 37.4457C16.4163 37.847 16.6193 38.484 16.6193 39.3567V40.9247C16.6193 41.7973 16.4163 42.4367 16.0103 42.8427C15.609 43.2487 14.972 43.4517 14.0993 43.4517H12.9513ZM11.1593 40.9387C11.1593 41.5967 11.29 42.0587 11.5513 42.3247C11.8173 42.586 12.284 42.7167 12.9513 42.7167H14.0993C14.7667 42.7167 15.231 42.586 15.4923 42.3247C15.7537 42.0587 15.8843 41.592 15.8843 40.9247V39.3567C15.8843 38.6893 15.7537 38.225 15.4923 37.9637C15.231 37.7023 14.7667 37.5717 14.0993 37.5717H12.9513C12.5033 37.567 12.1487 37.6207 11.8873 37.7327C11.626 37.8447 11.4393 38.0313 11.3273 38.2927C11.2153 38.554 11.1593 38.9087 11.1593 39.3567V40.9387ZM22.3739 43.4517C21.7112 43.4517 21.2235 43.2977 20.9109 42.9897C20.6029 42.6817 20.4489 42.1987 20.4489 41.5407V34.1067C20.4489 33.864 20.5725 33.7427 20.8199 33.7427C21.0625 33.7427 21.1839 33.864 21.1839 34.1067V41.5407C21.1839 41.9933 21.2679 42.3037 21.4359 42.4717C21.6039 42.635 21.9142 42.7167 22.3669 42.7167C22.6189 42.7167 22.7449 42.838 22.7449 43.0807C22.7495 43.328 22.6259 43.4517 22.3739 43.4517ZM31.4811 36.8367C31.7284 36.8367 31.8521 36.958 31.8521 37.2007V43.0807C31.8521 43.328 31.7284 43.4517 31.4811 43.4517C31.2384 43.4517 31.1171 43.328 31.1171 43.0807V42.4157C30.6738 43.1063 29.8711 43.4517 28.7091 43.4517H28.3171C27.4444 43.4517 26.8051 43.2487 26.3991 42.8427C25.9978 42.4367 25.7971 41.7973 25.7971 40.9247V37.2007C25.7971 36.958 25.9184 36.8367 26.1611 36.8367C26.4084 36.8367 26.5321 36.958 26.5321 37.2007V40.9247C26.5321 41.592 26.6628 42.0587 26.9241 42.3247C27.1901 42.586 27.6544 42.7167 28.3171 42.7167H28.7091C29.4324 42.7167 30.0018 42.6 30.4171 42.3667C30.8324 42.1333 31.0658 41.7763 31.1171 41.2957V37.2007C31.1171 36.958 31.2384 36.8367 31.4811 36.8367ZM38.57 43.4517C37.7113 43.4517 37.0837 43.2533 36.687 42.8567C36.2903 42.46 36.092 41.8347 36.092 40.9807V37.5717H35.259C35.0117 37.5717 34.888 37.448 34.888 37.2007C34.888 36.958 35.0117 36.8367 35.259 36.8367H36.092V35.3317C36.092 35.0843 36.2133 34.9607 36.456 34.9607C36.7033 34.9607 36.827 35.0843 36.827 35.3317V36.8367H38.584C38.8267 36.8367 38.948 36.958 38.948 37.2007C38.948 37.448 38.8267 37.5717 38.584 37.5717H36.827V40.9807C36.827 41.634 36.953 42.0867 37.205 42.3387C37.4617 42.5907 37.9167 42.7167 38.57 42.7167C38.7053 42.7167 38.801 42.747 38.857 42.8077C38.9177 42.8683 38.948 42.9593 38.948 43.0807C38.948 43.328 38.822 43.4517 38.57 43.4517ZM42.4956 35.5627C42.1736 35.5627 42.0126 35.397 42.0126 35.0657V34.7507C42.0126 34.4287 42.1736 34.2677 42.4956 34.2677H42.8106C43.1233 34.2677 43.2796 34.4287 43.2796 34.7507V35.0657C43.2796 35.397 43.1233 35.5627 42.8106 35.5627H42.4956ZM42.6566 43.4517C42.4093 43.4517 42.2856 43.328 42.2856 43.0807V37.2007C42.2856 36.958 42.4093 36.8367 42.6566 36.8367C42.8993 36.8367 43.0206 36.958 43.0206 37.2007V43.0807C43.0206 43.328 42.8993 43.4517 42.6566 43.4517ZM49.3732 43.4517C48.5005 43.4517 47.8612 43.251 47.4552 42.8497C47.0492 42.4437 46.8462 41.8067 46.8462 40.9387V39.3567C46.8462 38.4747 47.0492 37.833 47.4552 37.4317C47.8612 37.0257 48.5005 36.8273 49.3732 36.8367H50.5212C51.3939 36.8367 52.0309 37.0397 52.4322 37.4457C52.8382 37.847 53.0412 38.484 53.0412 39.3567V40.9247C53.0412 41.7973 52.8382 42.4367 52.4322 42.8427C52.0309 43.2487 51.3939 43.4517 50.5212 43.4517H49.3732ZM47.5812 40.9387C47.5812 41.5967 47.7119 42.0587 47.9732 42.3247C48.2392 42.586 48.7059 42.7167 49.3732 42.7167H50.5212C51.1885 42.7167 51.6529 42.586 51.9142 42.3247C52.1755 42.0587 52.3062 41.592 52.3062 40.9247V39.3567C52.3062 38.6893 52.1755 38.225 51.9142 37.9637C51.6529 37.7023 51.1885 37.5717 50.5212 37.5717H49.3732C48.9252 37.567 48.5705 37.6207 48.3092 37.7327C48.0479 37.8447 47.8612 38.0313 47.7492 38.2927C47.6372 38.554 47.5812 38.9087 47.5812 39.3567V40.9387ZM57.2417 43.4517C56.9944 43.4517 56.8707 43.328 56.8707 43.0807V37.2007C56.8707 36.958 56.9944 36.8367 57.2417 36.8367C57.4844 36.8367 57.6057 36.958 57.6057 37.2007V37.8727C58.0491 37.182 58.8517 36.8367 60.0137 36.8367H60.4057C61.2784 36.8367 61.9154 37.0397 62.3167 37.4457C62.7227 37.847 62.9257 38.484 62.9257 39.3567V43.0807C62.9257 43.328 62.8044 43.4517 62.5617 43.4517C62.3144 43.4517 62.1907 43.328 62.1907 43.0807V39.3567C62.1907 38.6893 62.0577 38.225 61.7917 37.9637C61.5304 37.7023 61.0684 37.5717 60.4057 37.5717H60.0137C59.2904 37.5717 58.7211 37.686 58.3057 37.9147C57.8904 38.1433 57.6571 38.5003 57.6057 38.9857V43.0807C57.6057 43.328 57.4844 43.4517 57.2417 43.4517ZM68.2647 43.4377C67.6907 43.4377 67.252 43.3163 66.9487 43.0737C66.6453 42.8263 66.4633 42.4507 66.4027 41.9467C66.3887 41.8253 66.4143 41.732 66.4797 41.6667C66.545 41.5967 66.6407 41.5617 66.7667 41.5617C66.8833 41.5617 66.9697 41.592 67.0257 41.6527C67.0863 41.7133 67.126 41.8043 67.1447 41.9257C67.1867 42.215 67.2917 42.418 67.4597 42.5347C67.6323 42.6467 67.9007 42.7027 68.2647 42.7027H70.5607C70.9947 42.7027 71.2933 42.621 71.4567 42.4577C71.62 42.2943 71.7017 41.9957 71.7017 41.5617C71.7017 41.123 71.62 40.822 71.4567 40.6587C71.2933 40.4953 70.9947 40.4137 70.5607 40.4137H68.2927C67.686 40.4137 67.2333 40.269 66.9347 39.9797C66.6407 39.6857 66.4937 39.2353 66.4937 38.6287C66.4937 38.008 66.6407 37.553 66.9347 37.2637C67.2287 36.9697 67.6813 36.8227 68.2927 36.8227H70.4907C71.5453 36.8227 72.131 37.2893 72.2477 38.2227C72.2663 38.344 72.2407 38.4397 72.1707 38.5097C72.1053 38.575 72.012 38.6077 71.8907 38.6077C71.774 38.6077 71.6853 38.5773 71.6247 38.5167C71.5687 38.456 71.529 38.3673 71.5057 38.2507C71.473 37.9893 71.3773 37.8097 71.2187 37.7117C71.0647 37.609 70.822 37.5577 70.4907 37.5577H68.2927C67.8867 37.5577 67.6067 37.6323 67.4527 37.7817C67.3033 37.931 67.2287 38.2133 67.2287 38.6287C67.2287 39.0253 67.3057 39.3007 67.4597 39.4547C67.6137 39.604 67.8913 39.6787 68.2927 39.6787H70.5607C71.2047 39.6787 71.6783 39.8327 71.9817 40.1407C72.285 40.444 72.4367 40.9177 72.4367 41.5617C72.4367 42.201 72.285 42.6747 71.9817 42.9827C71.6783 43.286 71.2047 43.4377 70.5607 43.4377H68.2647ZM81.3206 46.2517C81.0733 46.2517 80.9496 46.128 80.9496 45.8807V37.2007C80.9496 36.958 81.0733 36.8367 81.3206 36.8367C81.5633 36.8367 81.6846 36.958 81.6846 37.2007V37.8237C81.8946 37.497 82.1956 37.252 82.5876 37.0887C82.9796 36.9207 83.4813 36.8367 84.0926 36.8367H84.6246C85.4973 36.8367 86.1343 37.0397 86.5356 37.4457C86.9416 37.847 87.1446 38.484 87.1446 39.3567V40.9247C87.1446 41.7973 86.9416 42.4367 86.5356 42.8427C86.1343 43.2487 85.4973 43.4517 84.6246 43.4517H81.6846V45.8807C81.6846 46.128 81.5633 46.2517 81.3206 46.2517ZM81.6846 42.7167H84.6246C85.292 42.7167 85.7563 42.586 86.0176 42.3247C86.279 42.0587 86.4096 41.592 86.4096 40.9247V39.3567C86.4096 38.6893 86.279 38.225 86.0176 37.9637C85.7563 37.7023 85.292 37.5717 84.6246 37.5717H84.0926C83.346 37.5717 82.772 37.6883 82.3706 37.9217C81.974 38.155 81.7453 38.5143 81.6846 38.9997V42.7167ZM93.2442 43.1717C93.1928 43.2837 93.1298 43.3583 93.0552 43.3957C92.9805 43.433 92.8942 43.4517 92.7962 43.4517C92.5908 43.4517 92.4462 43.356 92.3622 43.1647L89.7652 37.3477C89.6672 37.119 89.7348 36.9603 89.9682 36.8717C90.1875 36.7783 90.3462 36.8437 90.4442 37.0677L93.0342 42.8637H92.5862L95.3442 37.0607C95.3955 36.9533 95.4632 36.8833 95.5472 36.8507C95.6312 36.818 95.7268 36.825 95.8342 36.8717C96.0628 36.9743 96.1258 37.1377 96.0232 37.3617L93.2442 43.1717ZM101.819 43.4517C100.96 43.4517 100.333 43.2533 99.9358 42.8567C99.5392 42.46 99.3408 41.8347 99.3408 40.9807V37.5717H98.5078C98.2605 37.5717 98.1368 37.448 98.1368 37.2007C98.1368 36.958 98.2605 36.8367 98.5078 36.8367H99.3408V35.3317C99.3408 35.0843 99.4622 34.9607 99.7048 34.9607C99.9522 34.9607 100.076 35.0843 100.076 35.3317V36.8367H101.833C102.076 36.8367 102.197 36.958 102.197 37.2007C102.197 37.448 102.076 37.5717 101.833 37.5717H100.076V40.9807C100.076 41.634 100.202 42.0867 100.454 42.3387C100.711 42.5907 101.166 42.7167 101.819 42.7167C101.954 42.7167 102.05 42.747 102.106 42.8077C102.167 42.8683 102.197 42.9593 102.197 43.0807C102.197 43.328 102.071 43.4517 101.819 43.4517ZM112.373 43.4517C111.71 43.4517 111.223 43.2977 110.91 42.9897C110.602 42.6817 110.448 42.1987 110.448 41.5407V34.1067C110.448 33.864 110.572 33.7427 110.819 33.7427C111.062 33.7427 111.183 33.864 111.183 34.1067V41.5407C111.183 41.9933 111.267 42.3037 111.435 42.4717C111.603 42.635 111.913 42.7167 112.366 42.7167C112.618 42.7167 112.744 42.838 112.744 43.0807C112.749 43.328 112.625 43.4517 112.373 43.4517ZM118.488 43.4517C117.629 43.4517 117.001 43.2533 116.605 42.8567C116.208 42.46 116.01 41.8347 116.01 40.9807V37.5717H115.177C114.929 37.5717 114.806 37.448 114.806 37.2007C114.806 36.958 114.929 36.8367 115.177 36.8367H116.01V35.3317C116.01 35.0843 116.131 34.9607 116.374 34.9607C116.621 34.9607 116.745 35.0843 116.745 35.3317V36.8367H118.502C118.744 36.8367 118.866 36.958 118.866 37.2007C118.866 37.448 118.744 37.5717 118.502 37.5717H116.745V40.9807C116.745 41.634 116.871 42.0867 117.123 42.3387C117.379 42.5907 117.834 42.7167 118.488 42.7167C118.623 42.7167 118.719 42.747 118.775 42.8077C118.835 42.8683 118.866 42.9593 118.866 43.0807C118.866 43.328 118.74 43.4517 118.488 43.4517ZM123.981 43.4517C123.108 43.4517 122.469 43.2487 122.063 42.8427C121.657 42.4367 121.454 41.7973 121.454 40.9247V39.3567C121.454 38.484 121.657 37.847 122.063 37.4457C122.469 37.0397 123.108 36.8367 123.981 36.8367H126.914V34.1067C126.914 33.864 127.037 33.7427 127.285 33.7427C127.527 33.7427 127.649 33.864 127.649 34.1067V43.0807C127.649 43.328 127.527 43.4517 127.285 43.4517C127.037 43.4517 126.914 43.328 126.914 43.0807V42.4787C126.713 42.8007 126.419 43.0433 126.032 43.2067C125.644 43.37 125.138 43.4517 124.513 43.4517H123.981ZM123.981 42.7167H124.513C125.241 42.7167 125.822 42.6023 126.256 42.3737C126.694 42.1403 126.914 41.7927 126.914 41.3307V37.5717H123.981C123.313 37.5717 122.847 37.7047 122.581 37.9707C122.319 38.232 122.189 38.694 122.189 39.3567V40.9247C122.189 41.592 122.319 42.0587 122.581 42.3247C122.847 42.586 123.313 42.7167 123.981 42.7167Z" fill="#1F316F"/>
</svg>
