<svg width="72" height="72" viewBox="0 0 72 72" fill="none" xmlns="http://www.w3.org/2000/svg">
<path d="M58.7931 40.1817C57.6251 39.0138 56.2232 38.1063 54.6796 37.5188C55.6329 36.9315 56.4529 36.1514 57.087 35.2285C57.7211 34.3056 58.1553 33.2604 58.3617 32.1598C58.5681 31.0593 58.5422 29.9278 58.2856 28.8378C58.0289 27.7479 57.5473 26.7237 56.8716 25.8308C56.1958 24.938 55.3409 24.1963 54.3617 23.6533C53.3824 23.1102 52.3005 22.7779 51.1853 22.6776C50.07 22.5774 48.9462 22.7113 47.8857 23.0709C46.8253 23.4305 45.8518 24.0078 45.0276 24.7658C44.4165 22.8513 43.2125 21.1807 41.5897 19.9952C39.9668 18.8098 38.0092 18.1709 35.9995 18.1709C33.9898 18.1709 32.0322 18.8098 30.4093 19.9952C28.7865 21.1807 27.5826 22.8513 26.9714 24.7658C26.1479 23.9998 25.1728 23.4152 24.1091 23.0497C23.0455 22.6842 21.917 22.546 20.7966 22.6439C19.6762 22.7419 18.5889 23.0739 17.6048 23.6185C16.6208 24.1631 15.762 24.9081 15.0839 25.8054C14.4058 26.7027 13.9236 27.7322 13.6684 28.8276C13.4132 29.9229 13.3907 31.0596 13.6024 32.1642C13.814 33.2688 14.2551 34.3167 14.8972 35.2401C15.5392 36.1635 16.3678 36.9419 17.3296 37.525C15.1076 38.3741 13.1952 39.8769 11.8449 41.8352C10.4945 43.7934 9.76952 46.115 9.76562 48.4937V51.6651C9.76563 51.9262 9.86934 52.1766 10.0539 52.3612C10.2385 52.5458 10.4889 52.6495 10.75 52.6495H22.0714V52.8452C22.0714 52.9745 22.0968 53.1026 22.1462 53.222C22.1957 53.3415 22.2682 53.45 22.3596 53.5415C22.451 53.6329 22.5596 53.7054 22.679 53.7548C22.7985 53.8043 22.9265 53.8297 23.0558 53.8296H48.9443C49.0736 53.8297 49.2016 53.8043 49.3211 53.7548C49.4406 53.7054 49.5491 53.6329 49.6405 53.5415C49.732 53.45 49.8045 53.3415 49.8539 53.222C49.9034 53.1026 49.9288 52.9745 49.9287 52.8452V52.6501H61.2501C61.5112 52.6501 61.7616 52.5463 61.9462 52.3617C62.1308 52.1771 62.2345 51.9267 62.2345 51.6657V48.4932C62.239 46.949 61.9372 45.4194 61.3464 43.9927C60.7557 42.566 59.8879 41.2707 58.7931 40.1817ZM50.4816 24.6167C51.6317 24.6206 52.7569 24.9516 53.7259 25.5711C54.6948 26.1905 55.4676 27.0728 55.9539 28.115C56.4403 29.1571 56.6201 30.3161 56.4724 31.4566C56.3247 32.5972 55.8556 33.6722 55.1198 34.5561C54.3841 35.44 53.4121 36.0963 52.3173 36.4485C51.2225 36.8007 50.0501 36.8341 48.937 36.545C47.8239 36.2558 46.816 35.6559 46.031 34.8154C45.2461 33.9749 44.7164 32.9284 44.5039 31.7982C45.1469 30.5001 45.4824 29.0714 45.4844 27.6227C45.4844 27.4984 45.4743 27.3792 45.4692 27.256C46.0262 26.4408 46.7741 25.7741 47.6478 25.3141C48.5214 24.8541 49.4943 24.6147 50.4816 24.6167ZM45.1171 38.0369C43.8581 37.0102 42.4175 36.2292 40.8702 35.7346C41.7023 35.2366 42.453 34.6138 43.096 33.8879C43.7637 35.3944 44.8754 36.6612 46.2826 37.5188C45.8848 37.6699 45.4957 37.8429 45.1171 38.0369ZM36.0001 20.1375C37.8869 20.1413 39.7036 20.8531 41.0909 22.1321C42.4781 23.4111 43.3348 25.1642 43.4914 27.0445C43.5078 27.2352 43.5156 27.4287 43.5156 27.6227C43.5156 29.616 42.7238 31.5276 41.3144 32.937C39.9049 34.3465 37.9933 35.1383 36.0001 35.1383C34.0068 35.1383 32.0952 34.3465 30.6858 32.937C29.2763 31.5276 28.4845 29.616 28.4845 27.6227C28.4845 27.4287 28.4924 27.2352 28.5092 27.0366C28.6674 25.1576 29.5247 23.4064 30.9117 22.1289C32.2987 20.8515 34.1144 20.1409 36.0001 20.1375ZM26.8831 38.0369C26.5044 37.8428 26.1153 37.6698 25.7176 37.5188C27.125 36.6606 28.2368 35.393 28.9041 33.8856C29.5471 34.6115 30.2978 35.2343 31.1299 35.7323C29.5825 36.2277 28.1418 37.0094 26.8831 38.0369ZM15.4289 30.6782C15.434 29.3813 15.8533 28.12 16.6257 27.0781C17.398 26.0362 18.4829 25.2682 19.7223 24.8862C20.9617 24.5042 22.2907 24.5281 23.5156 24.9543C24.7404 25.3806 25.7971 26.187 26.5315 27.256C26.5264 27.3786 26.5158 27.5001 26.5158 27.6227C26.5176 29.0714 26.8531 30.5001 27.4962 31.7982C27.2118 33.2842 26.3842 34.6111 25.1748 35.5203C23.9654 36.4294 22.4607 36.8556 20.9542 36.7157C19.4476 36.5759 18.0471 35.8801 17.0257 34.764C16.0042 33.6478 15.4349 32.1912 15.4289 30.6782ZM11.7344 50.6813V48.4932C11.7347 46.8761 12.1356 45.2843 12.9014 43.8601C13.6672 42.4358 14.7739 41.2235 16.1227 40.3315C17.4714 39.4394 19.0202 38.8955 20.6305 38.7482C22.2409 38.6009 23.8626 38.8549 25.3508 39.4875C23.2412 41.871 22.075 44.9429 22.0714 48.1259V50.6813H11.7344ZM47.9594 51.8625H24.0402V48.1275C24.04 46.676 24.3258 45.2387 24.8812 43.8977C25.4366 42.5566 26.2507 41.3381 27.277 40.3117C28.3034 39.2853 29.5219 38.4711 30.8629 37.9157C32.2039 37.3602 33.6412 37.0744 35.0928 37.0744H36.9074C38.3589 37.0742 39.7963 37.36 41.1374 37.9154C42.4785 38.4708 43.697 39.2849 44.7234 40.3114C45.7498 41.3378 46.5639 42.5564 47.1192 43.8975C47.6746 45.2386 47.9602 46.676 47.9599 48.1275L47.9594 51.8625ZM60.2652 50.6813H49.9287V48.1275C49.9254 44.9442 48.7594 41.8716 46.6499 39.4875C48.138 38.8539 49.76 38.599 51.3707 38.7458C52.9814 38.8926 54.5306 39.4365 55.8796 40.3287C57.2287 41.221 58.3354 42.4338 59.1009 43.8586C59.8663 45.2834 60.2665 46.8758 60.2658 48.4932L60.2652 50.6813Z" fill="#1B1E6D"/>
</svg>
