<svg width="72" height="72" viewBox="0 0 72 72" fill="none" xmlns="http://www.w3.org/2000/svg">
<path d="M17.9331 40.6299H12.2749C11.5933 40.6306 10.9399 40.9016 10.4578 41.3834C9.9757 41.8651 9.70432 42.5184 9.70312 43.1999V56.759C9.70387 57.4408 9.97506 58.0945 10.4572 58.5767C10.9393 59.0588 11.593 59.33 12.2749 59.3308H17.9331C18.6149 59.33 19.2686 59.0588 19.7507 58.5767C20.2329 58.0945 20.5041 57.4408 20.5048 56.759V43.1999C20.5036 42.5184 20.2322 41.8651 19.7501 41.3834C19.2681 40.9016 18.6146 40.6306 17.9331 40.6299ZM18.5361 56.7613C18.5359 56.9211 18.4723 57.0744 18.3593 57.1875C18.2462 57.3005 18.0929 57.3641 17.9331 57.3643H12.2749C12.115 57.3641 11.9617 57.3005 11.8487 57.1875C11.7356 57.0744 11.672 56.9211 11.6719 56.7613V43.1999C11.672 43.04 11.7356 42.8867 11.8486 42.7735C11.9617 42.6604 12.1149 42.5967 12.2749 42.5964H17.9331C18.093 42.5967 18.2463 42.6604 18.3593 42.7735C18.4724 42.8867 18.5359 43.04 18.5361 43.1999V56.7613Z" fill="#1B1E6D"/>
<path d="M31.8637 36.9487H26.205C25.5232 36.9495 24.8695 37.2207 24.3875 37.7028C23.9055 38.185 23.6344 38.8387 23.6338 39.5205V56.7617C23.6344 57.4435 23.9055 58.0972 24.3875 58.5793C24.8695 59.0615 25.5232 59.3327 26.205 59.3334H31.8637C32.5456 59.3327 33.1993 59.0615 33.6814 58.5794C34.1635 58.0972 34.4347 57.4435 34.4355 56.7617V39.5205C34.4347 38.8386 34.1635 38.1849 33.6814 37.7028C33.1993 37.2207 32.5456 36.9495 31.8637 36.9487ZM32.4667 56.7617C32.4666 56.9215 32.403 57.0748 32.2899 57.1879C32.1769 57.3009 32.0236 57.3645 31.8637 57.3647H26.205C26.0452 57.3644 25.8921 57.3007 25.7791 57.1877C25.6662 57.0747 25.6027 56.9214 25.6025 56.7617V39.5205C25.6027 39.3607 25.6662 39.2075 25.7791 39.0945C25.8921 38.9814 26.0452 38.9178 26.205 38.9175H31.8637C32.0236 38.9176 32.1769 38.9812 32.2899 39.0943C32.403 39.2073 32.4666 39.3606 32.4667 39.5205V56.7617Z" fill="#1B1E6D"/>
<path d="M45.795 31.6362H40.1362C39.4544 31.637 38.8007 31.9082 38.3185 32.3903C37.8364 32.8724 37.5652 33.5261 37.5645 34.208V56.7642C37.5652 57.4461 37.8364 58.0998 38.3185 58.5819C38.8007 59.064 39.4544 59.3352 40.1362 59.336H45.795C46.4767 59.3352 47.1304 59.064 47.6124 58.5819C48.0945 58.0997 48.3655 57.446 48.3661 56.7642V34.208C48.3655 33.5262 48.0945 32.8725 47.6124 32.3903C47.1304 31.9082 46.4767 31.637 45.795 31.6362ZM46.3974 56.7614C46.3972 56.9212 46.3337 57.0744 46.2208 57.1874C46.1079 57.3005 45.9547 57.3641 45.795 57.3644H40.1362C39.9763 57.3643 39.823 57.3007 39.71 57.1876C39.5969 57.0746 39.5334 56.9213 39.5332 56.7614V34.2052C39.5334 34.0453 39.5969 33.892 39.71 33.7789C39.823 33.6659 39.9763 33.6023 40.1362 33.6022H45.795C45.9547 33.6025 46.1079 33.6661 46.2208 33.7791C46.3337 33.8922 46.3972 34.0454 46.3974 34.2052V56.7614Z" fill="#1B1E6D"/>
<path d="M59.7251 26.4268H54.0669C53.385 26.4275 52.7313 26.6987 52.2492 27.1808C51.7671 27.663 51.4959 28.3167 51.4951 28.9985V56.7613C51.4959 57.4431 51.7671 58.0968 52.2492 58.5789C52.7313 59.0611 53.385 59.3323 54.0669 59.333H59.7251C60.4069 59.3323 61.0606 59.0611 61.5427 58.5789C62.0249 58.0968 62.2961 57.4431 62.2968 56.7613V28.9985C62.2961 28.3167 62.0249 27.663 61.5427 27.1808C61.0606 26.6987 60.4069 26.4275 59.7251 26.4268ZM60.3281 56.7613C60.3279 56.9211 60.2643 57.0744 60.1513 57.1875C60.0382 57.3005 59.8849 57.3641 59.7251 57.3643H54.0669C53.907 57.3641 53.7537 57.3005 53.6406 57.1875C53.5276 57.0744 53.464 56.9211 53.4639 56.7613V28.9985C53.464 28.8386 53.5276 28.6853 53.6406 28.5723C53.7537 28.4592 53.907 28.3957 54.0669 28.3955H59.7251C59.8849 28.3957 60.0382 28.4592 60.1513 28.5723C60.2643 28.6853 60.3279 28.8386 60.3281 28.9985V56.7613Z" fill="#1B1E6D"/>
<path d="M15.104 34.6344C15.2411 34.6343 15.3767 34.6057 15.5023 34.5505L54.9841 17.0877L53.5531 20.3727C53.4487 20.6121 53.4436 20.8831 53.5391 21.1262C53.6345 21.3693 53.8225 21.5646 54.0619 21.669C54.3013 21.7734 54.5723 21.7785 54.8154 21.6831C55.0585 21.5877 55.2538 21.3996 55.3582 21.1602L57.7983 15.5605C57.7983 15.5544 57.8017 15.5482 57.8039 15.542C57.8218 15.4966 57.8363 15.45 57.8473 15.4025C57.8518 15.3845 57.8591 15.367 57.8624 15.3462C57.875 15.2797 57.8808 15.212 57.8799 15.1443C57.8799 15.1353 57.8799 15.1269 57.8765 15.1179C57.8741 15.059 57.8664 15.0004 57.8534 14.9429C57.8478 14.9193 57.8383 14.8968 57.8309 14.8737C57.8214 14.8374 57.8098 14.8018 57.7961 14.7669C57.7961 14.7601 57.7882 14.7545 57.7854 14.7477C57.7826 14.741 57.7814 14.7359 57.7786 14.7303C57.7696 14.7112 57.7556 14.6954 57.7449 14.6769C57.7244 14.6397 57.7017 14.6038 57.6768 14.5694C57.6605 14.5486 57.6425 14.53 57.6251 14.5104C57.5976 14.479 57.5681 14.4495 57.5368 14.422C57.5159 14.404 57.4946 14.3883 57.4726 14.3725C57.4405 14.3489 57.4068 14.3273 57.3719 14.3079C57.3472 14.2938 57.3219 14.2814 57.296 14.2696C57.2594 14.2538 57.2218 14.2402 57.1835 14.2291C57.1655 14.2235 57.1498 14.2145 57.1318 14.21L51.0562 12.6957C50.8026 12.6326 50.5343 12.6727 50.3103 12.8074C50.0862 12.942 49.9249 13.1602 49.8617 13.4138C49.7985 13.6674 49.8387 13.9357 49.9734 14.1597C50.108 14.3837 50.3261 14.5451 50.5798 14.6082L53.8721 15.4284L14.7058 32.7534C14.4995 32.8448 14.3308 33.0043 14.2281 33.2051C14.1253 33.406 14.0947 33.6361 14.1414 33.8569C14.188 34.0777 14.3091 34.2757 14.4844 34.4178C14.6596 34.56 14.8784 34.6376 15.104 34.6377V34.6344Z" fill="#1B1E6D"/>
</svg>
