<svg width="24" height="24" viewBox="0 0 24 24" fill="none" xmlns="http://www.w3.org/2000/svg">
<path d="M0.666626 21.0445V2.95513C0.666626 2.32566 0.890695 1.78685 1.33883 1.33871C1.78697 0.890573 2.32578 0.666504 2.95525 0.666504H21.0447C21.6741 0.666504 22.2129 0.890573 22.6611 1.33871C23.1092 1.78685 23.3333 2.32566 23.3333 2.95513V21.0445C23.3333 21.674 23.1092 22.2128 22.6611 22.661C22.2129 23.1091 21.6741 23.3332 21.0447 23.3332H2.95525C2.32578 23.3332 1.78697 23.1091 1.33883 22.661C0.890695 22.2128 0.666626 21.674 0.666626 21.0445ZM2.08329 7.96765H21.9166V2.95513C21.9166 2.70084 21.8349 2.49188 21.6715 2.32825C21.5079 2.16486 21.299 2.08317 21.0447 2.08317H2.95525C2.70096 2.08317 2.492 2.16486 2.32838 2.32825C2.16499 2.49188 2.08329 2.70084 2.08329 2.95513V7.96765ZM9.16379 14.9423H14.8361V9.38432H9.16379V14.9423ZM9.16379 21.9165H14.8361V16.3589H9.16379V21.9165ZM2.08329 14.9423H7.74713V9.38432H2.08329V14.9423ZM16.2528 14.9423H21.9166V9.38432H16.2528V14.9423ZM2.95525 21.9165H7.74713V16.3589H2.08329V21.0445C2.08329 21.2988 2.16499 21.5078 2.32838 21.6714C2.492 21.8348 2.70096 21.9165 2.95525 21.9165ZM16.2528 21.9165H21.0447C21.299 21.9165 21.5079 21.8348 21.6715 21.6714C21.8349 21.5078 21.9166 21.2988 21.9166 21.0445V16.3589H16.2528V21.9165Z" fill="#A1A9B8"/>
</svg>
